<?xml version="1.0" standalone="no"?><!DOCTYPE svg PUBLIC "-//W3C//DTD SVG 1.1//EN" "http://www.w3.org/Graphics/SVG/1.1/DTD/svg11.dtd"><svg t="1733570872678" class="icon" viewBox="0 0 1024 1024" version="1.1" xmlns="http://www.w3.org/2000/svg" p-id="10842" xmlns:xlink="http://www.w3.org/1999/xlink" width="1280" height="1280"><path d="M515.04 667.27c-51.26 0-99.56-20.08-136.01-56.53-36.45-36.45-56.53-84.76-56.53-136.01V259.18c0-51.26 20.08-99.56 56.53-136.01 36.45-36.45 84.76-56.53 136.01-56.53h0.19c106.06 0 192.35 86.37 192.35 192.54v215.55c0 51.26-20.08 99.56-56.53 136.01-36.45 36.46-84.76 56.53-136.01 56.53z m0-531.17c-67.87 0-123.09 55.22-123.09 123.09v215.55c0 67.87 55.22 123.09 123.09 123.09s123.09-55.22 123.09-123.09V259.18c0-67.87-55.13-123.09-122.9-123.09h-0.19z" fill="#231815" p-id="10843"></path><path d="M515.04 782.75c-44.19 0-87.16-8.73-127.7-25.96-39.09-16.61-74.22-40.34-104.43-70.55-30.21-30.21-53.95-65.35-70.55-104.43-17.22-40.54-25.96-83.51-25.96-127.7 0-19.18 15.55-34.73 34.73-34.73s34.73 15.55 34.73 34.73c0 142.92 116.27 259.19 259.19 259.19 142.92 0 259.19-116.27 259.19-259.19 0-19.18 15.55-34.73 34.73-34.73s34.73 15.55 34.73 34.73c0 44.19-8.73 87.16-25.96 127.7-16.61 39.09-40.34 74.22-70.55 104.43-30.21 30.21-65.35 53.95-104.43 70.55-40.56 17.23-83.53 25.96-127.72 25.96z" fill="#231815" p-id="10844"></path><path d="M515.04 955.49c-19.18 0-34.73-15.55-34.73-34.73V748.03c0-19.18 15.55-34.73 34.73-34.73 19.18 0 34.73 15.55 34.73 34.73v172.74c0 19.17-15.55 34.72-34.73 34.72z" fill="#231815" p-id="10845"></path><path d="M445.86 441.23c-19.18 0-34.73-15.55-34.73-34.73V269.02c0-19.18 15.55-34.73 34.73-34.73s34.73 15.55 34.73 34.73v137.49c-0.01 19.18-15.55 34.72-34.73 34.72z" fill="#F7B52C" p-id="10846"></path></svg>